<?xml version="1.0" encoding="utf-8"?>
<!-- Generator: Adobe Illustrator 25.0.0, SVG Export Plug-In . SVG Version: 6.00 Build 0)  -->
<svg version="1.1" id="图层_1" xmlns="http://www.w3.org/2000/svg" xmlns:xlink="http://www.w3.org/1999/xlink" x="0px"
	y="0px" viewBox="0 0 1024 200" style="enable-background:new 0 0 1024 200;" xml:space="preserve">
	<style type="text/css">
		.logo-beta-0 {
			fill: #184858;
		}

		.logo-beta-1 {
			fill: url(#Path_75_1_);
		}

		.logo-beta-2 {
			fill: url(#Path_76_1_);
		}

		.logo-beta-3 {
			fill: url(#Path_77_1_);
		}

		.logo-beta-4 {
			fill: url(#Path_78_1_);
		}

		.logo-beta-5 {
			fill: url(#Path_79_1_);
		}

		.logo-beta-6 {
			fill: url(#Path_80_1_);
		}

		.logo-beta-7 {
			fill: url(#Path_81_1_);
		}

		.logo-beta-8 {
			fill: url(#Path_82_1_);
		}

		.logo-beta-9 {
			fill: url(#Path_83_1_);
		}

		.logo-beta-10 {
			fill: url(#Path_84_1_);
		}

		.logo-beta-11 {
			fill: url(#Path_85_1_);
		}

		.logo-beta-12 {
			fill: url(#Path_86_1_);
		}

		.logo-beta-13 {
			fill: url(#Path_87_1_);
		}

		.logo-beta-14 {
			fill: #00BFBF;
		}

		.logo-beta-15 {
			fill: #FFFFFF;
		}

	</style>
	<g id="WORD" transform="translate(410.274 297.975)">
		<path id="Path_39" class="logo-beta-0" d="M-175.7-176.4h44.9c6.1,0,8.5-4.3,8.5-11.2c0-4.3-0.9-8.5-9-11.1l-31.7-10.5
		c-9.7-3.2-13.8-8.7-13.8-19.8c0-11.5,5.5-18.8,18.3-18.8h43.5v8.7h-41.5c-6.1,0-9.1,2.9-9.1,10.3c0,4.4,0.4,8.6,7.6,11l30.3,10.1
		c10.7,3.5,16.7,7.6,16.7,20.1c0,10.9-4.3,19.9-16.7,19.9h-47.9V-176.4z" />
		<path id="Path_40" class="logo-beta-0"
			d="M-85.1-148h-10.1l9.3-19.6l-26.4-60.8h10.1l21.3,50.3l22.1-50.3h10.1L-85.1-148z" />
		<path id="Path_41" class="logo-beta-0" d="M-44.2-218.5c0-6.3,2.7-10,9.3-10h21.8c13.2,0,20.6,5.7,20.6,19.7v41.1h-9.6V-207
		c0-8.3-3-13.7-12.2-13.7h-16.7c-2.2,0-3.6,0.8-3.6,3.9v49.2h-9.6L-44.2-218.5L-44.2-218.5z" />
		<path id="Path_42" class="logo-beta-0" d="M20.6-167.6v-69c0-8.6,4.3-11.3,11.2-11.3h48.5v8.7H36.5c-4.5,0-5.3,1.3-5.3,5.4v21.6H67v8.7
		H31.2v35.9L20.6-167.6z" />
		<path id="Path_43" class="logo-beta-0" d="M132-177.6c0,6.4-2.7,10-9.3,10h-22.5c-13.2,0-20.6-5.7-20.6-19.7v-41.1h9.6v39.4
		c0,8.3,3,13.7,12.2,13.7h17.4c2.2,0,3.6-0.8,3.6-3.9v-49.2h9.6L132-177.6z" />
		<path id="Path_44" class="logo-beta-0" d="M166.6-167.6c-15.1,0-19.4-7.3-19.4-19.5v-33.5h-9v-7.8h9V-248h9.6v19.5h17.1v7.8h-17v32.9
		c0,9.4,3.7,12.3,13,12.3h4v7.8L166.6-167.6z" />
		<path id="Path_45" class="logo-beta-0" d="M232.3-177.6c0,6.4-2.7,10-9.3,10h-22.5c-13.2,0-20.6-5.7-20.6-19.7v-41.1h9.6v39.4
		c0,8.3,3,13.7,12.2,13.7h17.4c2.2,0,3.6-0.8,3.6-3.9v-49.2h9.6L232.3-177.6z" />
		<path id="Path_46" class="logo-beta-0" d="M243.9-206.6c0-15,7.4-21.9,22.4-21.9h6.6v7.8H268c-10.5,0-14.4,5.4-14.4,16.6v36.5H244
		L243.9-206.6z" />
		<path id="Path_47" class="logo-beta-0" d="M296.3-167.6c-18.1,0-21.9-11.9-21.9-30.2c0-22.4,7.2-31.3,27.7-31.3c16.2,0,27.7,5.3,27.7,23.6
		c0,7-2.1,10.6-9.1,10.6h-36.3c0,9.9,1.7,19.4,14,19.4h29.8v7.8H296.3z M316.9-202.7c2.2,0,2.8-1.7,2.8-3.1v-0.4
		c0-11.5-7.3-15.1-17.5-15.1c-12.5,0-17.8,4.8-17.8,18.7h32.5V-202.7z" />
		<path id="Path_48" class="logo-beta-0" d="M337.9-175.5h34.6c5,0,7.4-2.7,7.4-7.7c0-6.4-5.5-7.6-14.9-9.9l-11.1-2.8
		c-11.6-2.9-16.8-7.4-16.8-17.6c0-10.2,5.7-15.1,16.5-15.1h32.9v7.9h-31.9c-5.6,0-7.8,1.9-7.8,7.4c0,6.7,4.7,8.4,11.3,10.1l12.1,3.1
		c12.3,3.1,19.8,5.3,19.8,17.1c0,9.4-3.5,15.3-15,15.3h-37V-175.5z" />
	</g>
	<g id="MARK" transform="translate(1.675 -5.359)">

		<linearGradient id="Path_75_1_" gradientUnits="userSpaceOnUse" x1="-661.668" y1="546.9128" x2="-661.6921"
			y2="545.2843" gradientTransform="matrix(81.244 0 0 -95.736 53884.582 52338.5469)">
			<stop offset="0" style="stop-color:#0098A6" />
			<stop offset="1" style="stop-color:#002D4D" />
		</linearGradient>
		<path id="Path_75" class="logo-beta-1" d="M133.7,99.5c18.1-10,34.1-19.3,34.1-19.3L86.3,35.1v89.3c2.8-0.9,10.1-4.5,19.3-9.3l28.1,16.3
		V99.5z" />

		<linearGradient id="Path_76_1_" gradientUnits="userSpaceOnUse" x1="-661.6835" y1="543.3616" x2="-661.6835"
			y2="545.5925" gradientTransform="matrix(81.243 0 0 -85.55 53802.6602 46662.2734)">
			<stop offset="0" style="stop-color:#0098A6" />
			<stop offset="1" style="stop-color:#002D4D" />
		</linearGradient>
		<path id="Path_76" class="logo-beta-2" d="M86.3,35.1L4.8,76.9c0,0,71.2,40.8,81.5,44.1V35.1z" />

		<linearGradient id="Path_77_1_" gradientUnits="userSpaceOnUse" x1="-667.2083" y1="543.5401" x2="-665.615"
			y2="541.7871" gradientTransform="matrix(124.279 0 0 -71.864 82867.9219 39104.0352)">
			<stop offset="0.27" style="stop-color:#0098A6" />
			<stop offset="1" style="stop-color:#002D4D" />
		</linearGradient>
		<path id="Path_77" class="logo-beta-3"
			d="M133.7,131.2l-47.5-27.4l-62.2,36l62.3,36l62.4-36v-17.4L133.7,131.2z" />

		<linearGradient id="Path_78_1_" gradientUnits="userSpaceOnUse" x1="-633.8785" y1="544.3668" x2="-633.9659"
			y2="542.915" gradientTransform="matrix(25.565 0 0 -79.211 16279.8926 43170.3633)">
			<stop offset="0" style="stop-color:#0098A6" />
			<stop offset="1" style="stop-color:#002D4D" />
		</linearGradient>
		<path id="Path_78" class="logo-beta-4" d="M60.7,75.7v64.8l25.7,14.9V90.6L60.7,75.7z" />

		<linearGradient id="Path_79_1_" gradientUnits="userSpaceOnUse" x1="-633.9227" y1="544.9366" x2="-633.9227"
			y2="543.0391" gradientTransform="matrix(25.565 0 0 -79.208 16305.4609 43168.6992)">
			<stop offset="0" style="stop-color:#0098A6" />
			<stop offset="1" style="stop-color:#002D4D" />
		</linearGradient>
		<path id="Path_79" class="logo-beta-5" d="M86.4,90.6v64.7l25.7-14.9V75.7L86.4,90.6z" />

		<linearGradient id="Path_80_1_" gradientUnits="userSpaceOnUse" x1="-645.593" y1="527.1457" x2="-648.4132"
			y2="525.3696" gradientTransform="matrix(38.313 0 0 -33.892 24847.3047 17945.8867)">
			<stop offset="0.27" style="stop-color:#0098A6" />
			<stop offset="1" style="stop-color:#002D4D" />
		</linearGradient>
		<path id="Path_80" class="logo-beta-6" d="M47.4,105.8l-23.5,13.6v20.5l38.5-22.2L47.4,105.8z" />

		<linearGradient id="Path_81_1_" gradientUnits="userSpaceOnUse" x1="-655.0444" y1="521.7482" x2="-650.5544"
			y2="517.0425" gradientTransform="matrix(49.531 0 0 -28.595 32393.7676 14978.9795)">
			<stop offset="0.27" style="stop-color:#0098A6" />
			<stop offset="1" style="stop-color:#002D4D" />
		</linearGradient>
		<path id="Path_81" class="logo-beta-7" d="M48.7,105.1l-24.8,14.3l-25-14.4l24.8-14.3L48.7,105.1z" />
		<g id="Group_17">

			<linearGradient id="Path_82_1_" gradientUnits="userSpaceOnUse" x1="-663.7457" y1="544.4883" x2="-660.2929"
				y2="541.9644" gradientTransform="matrix(87.587 0 0 -79.868 58078.0508 43516.9805)">
				<stop offset="8.800000e-02" style="stop-color:#26FFED" />
				<stop offset="0.39" style="stop-color:#18C4CD" />
				<stop offset="0.631" style="stop-color:#0B90B1" />
				<stop offset="0.869" style="stop-color:#0370A0" />
				<stop offset="0.994" style="stop-color:#006499" />
			</linearGradient>
			<path id="Path_82" class="logo-beta-8" d="M-1.7,56.2v29.4l88,50.8V107L-1.7,56.2z" />

			<linearGradient id="Path_83_1_" gradientUnits="userSpaceOnUse" x1="-663.9192" y1="547.0662" x2="-660.2676"
				y2="544.9418" gradientTransform="matrix(87.587 0 0 -100.368 58078.0547 54988.9453)">
				<stop offset="9.800000e-02" style="stop-color:#26FFED" />
				<stop offset="0.381" style="stop-color:#18C4CD" />
				<stop offset="0.631" style="stop-color:#0B90B1" />
				<stop offset="0.869" style="stop-color:#0370A0" />
				<stop offset="0.993" style="stop-color:#006499" />
			</linearGradient>
			<path id="Path_83" class="logo-beta-9" d="M24,119.3l-25.7-14.9v50l88,50.8v-29.4L24,139.9V119.3z" />
		</g>
		<g id="Group_18">

			<linearGradient id="Path_84_1_" gradientUnits="userSpaceOnUse" x1="-667.2236" y1="541.732" x2="-669.553"
				y2="537.988" gradientTransform="matrix(160.329 0 0 -65.33 107173.5312 35365.0039)">
				<stop offset="0" style="stop-color:#26FFED" />
				<stop offset="0.315" style="stop-color:#18C4CD" />
				<stop offset="0.631" style="stop-color:#0B90B1" />
				<stop offset="0.869" style="stop-color:#0370A0" />
				<stop offset="1" style="stop-color:#006499" />
			</linearGradient>
			<path id="Path_84" class="logo-beta-10"
				d="M86.3,5.4l-88,50.8L24,71l62.2-35.9l47.4,27.3l25.7-14.9L86.3,5.4z" />

			<linearGradient id="Path_85_1_" gradientUnits="userSpaceOnUse" x1="-655.5663" y1="519.5598" x2="-647.8666"
				y2="528.0969" gradientTransform="matrix(50.945 0 0 -29.413 33409.5195 15405.3467)">
				<stop offset="0" style="stop-color:#26FFED" />
				<stop offset="0.315" style="stop-color:#18C4CD" />
				<stop offset="0.631" style="stop-color:#0B90B1" />
				<stop offset="0.869" style="stop-color:#0370A0" />
				<stop offset="1" style="stop-color:#006499" />
			</linearGradient>
			<path id="Path_85" class="logo-beta-11" d="M60.7,75.7l25.7,14.9l25.5-14.8L86.2,61L60.7,75.7z" />
		</g>

		<linearGradient id="Path_86_1_" gradientUnits="userSpaceOnUse" x1="-633.9017" y1="545.2997" x2="-633.9197"
			y2="543.7545" gradientTransform="matrix(25.565 0 0 -83.273 16352.5449 45405.8906)">
			<stop offset="0" style="stop-color:#0098A6" />
			<stop offset="1" style="stop-color:#002D4D" />
		</linearGradient>
		<path id="Path_86" class="logo-beta-12" d="M133.7,62.4v68.8l25.7-14.9V47.5L133.7,62.4z" />

		<linearGradient id="Path_87_1_" gradientUnits="userSpaceOnUse" x1="-665.0547" y1="548.9795" x2="-660.9745"
			y2="550.1993" gradientTransform="matrix(87.586 0 0 -148.528 58164.9023 81778.4531)">
			<stop offset="0" style="stop-color:#26FFED" />
			<stop offset="0.315" style="stop-color:#18C4CD" />
			<stop offset="0.631" style="stop-color:#0B90B1" />
			<stop offset="0.869" style="stop-color:#0370A0" />
			<stop offset="1" style="stop-color:#006499" />
		</linearGradient>
		<path id="Path_87" class="logo-beta-13"
			d="M86.2,107v29.4l62.2-35.9V140l-62.2,35.9v29.4l88-50.8V56.2L86.2,107z" />
	</g>
	<g>
		<path class="logo-beta-14" d="M1009,150H839c-8.3,0-15-6.7-15-15V65c0-8.3,6.7-15,15-15h170c8.3,0,15,6.7,15,15v70
		C1024,143.3,1017.3,150,1009,150z" />
		<g>
			<path class="logo-beta-15" d="M851.4,78.6h20.8c3.8,0,6.9,0.9,9.2,2.6c2.3,1.8,3.5,4.4,3.5,8c0,2.2-0.5,4-1.6,5.5
			c-1.1,1.5-2.6,2.7-4.5,3.6v0.1c2.6,0.6,4.6,1.8,6,3.8c1.4,1.9,2,4.4,2,7.3c0,1.7-0.3,3.3-0.9,4.7c-0.6,1.5-1.5,2.7-2.8,3.8
			c-1.3,1.1-2.9,1.9-4.9,2.5c-2,0.6-4.4,0.9-7.1,0.9h-19.7V78.6z M858.9,96.5h12.2c1.8,0,3.3-0.5,4.5-1.5c1.2-1,1.8-2.5,1.8-4.4
			c0-2.2-0.5-3.7-1.6-4.6c-1.1-0.9-2.6-1.3-4.7-1.3h-12.2V96.5z M858.9,115.3h13.3c2.3,0,4-0.6,5.3-1.8s1.9-2.9,1.9-5
			c0-2.1-0.6-3.8-1.9-4.9c-1.3-1.1-3-1.7-5.3-1.7h-13.3V115.3z" />
			<path class="logo-beta-15" d="M892.9,78.6h30.8v6.5h-23.3v11.2H922v6.1h-21.6v12.5h23.8v6.5h-31.3V78.6z" />
			<path class="logo-beta-15" d="M926.7,78.6h34.7v6.5h-13.6v36.4h-7.5V85.1h-13.6V78.6z" />
			<path class="logo-beta-15" d="M972.1,78.6h8l16.5,42.8h-8l-4-11.3h-17.1l-4,11.3h-7.7L972.1,78.6z M969.4,104.4h13.1L976.1,86h-0.2
			L969.4,104.4z" />
		</g>
	</g>
</svg>
