<?xml version="1.0" encoding="utf-8"?>
<!-- Generator: Adobe Illustrator 25.3.1, SVG Export Plug-In . SVG Version: 6.00 Build 0)  -->
<svg version="1.1" id="Layer_1" xmlns="http://www.w3.org/2000/svg" xmlns:xlink="http://www.w3.org/1999/xlink" x="0px" y="0px"
	 viewBox="0 0 210 210" style="enable-background:new 0 0 210 210;" xml:space="preserve">
<style type="text/css">
	.st0{fill:#D3D3D3;}
	.st1{fill:#FFFFFF;}
</style>
<circle class="st0" cx="105" cy="105" r="102.5"/>
<g id="SYN-LOGO" transform="translate(-182.567 -226.57)">
	<g id="Group_21" transform="translate(1.675 -5.359)">
		<g id="Group_19">
			<path id="Path_88" class="st1" d="M223.4,302v20.9l62.5,36.1V338L223.4,302z"/>
			<path id="Path_89" class="st1" d="M241.7,346.9l-18.2-10.5v35.5l62.5,36.1V387l-44.2-25.5V346.9z"/>
		</g>
		<g id="Group_20">
			<path id="Path_90" class="st1" d="M285.9,265.9L223.4,302l18.2,10.5l44.2-25.5l33.6,19.4l18.2-10.5L285.9,265.9z"/>
			<path id="Path_91" class="st1" d="M267.7,315.9l18.2,10.5l18.1-10.5l-18.2-10.5L267.7,315.9z"/>
		</g>
		<path id="Path_92" class="st1" d="M285.9,338.1V359l44.2-25.5v28.1L285.9,387v20.9l62.5-36.1V302L285.9,338.1z"/>
	</g>
</g>
</svg>
